<svg width="20" height="20" viewBox="0 0 20 20" fill="none" xmlns="http://www.w3.org/2000/svg">
<path d="M3.94073 13.4474C2.65278 12.1595 2.00881 11.5155 1.76919 10.68C1.52957 9.84449 1.73435 8.9571 2.14392 7.18231L2.38011 6.15883C2.72468 4.66569 2.89696 3.91912 3.4082 3.40789C3.91943 2.89666 4.666 2.72437 6.15913 2.3798L7.18262 2.14361C8.9574 1.73405 9.8448 1.52927 10.6803 1.76889C11.5158 2.00851 12.1598 2.65248 13.4477 3.94042L14.9724 5.46512C17.2132 7.70594 18.3337 8.82635 18.3337 10.2186C18.3337 11.6109 17.2132 12.7313 14.9724 14.9721C12.7316 17.2129 11.6112 18.3334 10.2189 18.3334C8.82666 18.3334 7.70625 17.2129 5.46543 14.9721L3.94073 13.4474Z" stroke="#00AD5C" stroke-width="1.2"/>
<path d="M12.8241 12.8244C13.3123 12.3362 13.3782 11.6107 12.9714 11.2039C12.5646 10.7972 11.8391 10.8631 11.351 11.3513C10.8628 11.8394 10.1373 11.9054 9.73051 11.4986C9.32371 11.0918 9.38967 10.3663 9.87782 9.87812M12.8241 12.8244L13.1187 13.119M12.8241 12.8244C12.4899 13.1586 12.0446 13.2949 11.6663 13.2172M9.5832 9.5835L9.87782 9.87812M9.87782 9.87812C10.1538 9.60211 10.5057 9.46107 10.833 9.46416" stroke="#00AD5C" stroke-width="1.2" stroke-linecap="round"/>
<circle cx="7.17245" cy="7.39929" r="1.66667" transform="rotate(-45 7.17245 7.39929)" stroke="#00AD5C" stroke-width="1.2"/>
</svg>
