<svg width="20" height="20" viewBox="0 0 20 20" fill="none" xmlns="http://www.w3.org/2000/svg">
<path d="M8.39983 6.58094C9.29704 4.97143 9.74565 4.16667 10.4163 4.16667C11.087 4.16667 11.5356 4.97143 12.4328 6.58094L12.665 6.99734C12.9199 7.45471 13.0474 7.6834 13.2462 7.83428C13.4449 7.98517 13.6925 8.04118 14.1876 8.15321L14.6383 8.25519C16.3806 8.6494 17.2517 8.8465 17.459 9.51298C17.6663 10.1795 17.0724 10.8739 15.8846 12.2629L15.5773 12.6222C15.2398 13.0169 15.071 13.2142 14.9951 13.4584C14.9192 13.7025 14.9447 13.9658 14.9957 14.4924L15.0422 14.9719C15.2218 16.825 15.3115 17.7516 14.7689 18.1635C14.2263 18.5754 13.4107 18.1999 11.7794 17.4488L11.3574 17.2544C10.8938 17.041 10.662 16.9343 10.4163 16.9343C10.1707 16.9343 9.93887 17.041 9.47531 17.2544L9.05328 17.4487C7.42199 18.1998 6.60634 18.5754 6.06374 18.1635C5.52113 17.7516 5.61092 16.825 5.7905 14.9719L5.83695 14.4924C5.88798 13.9658 5.9135 13.7025 5.83758 13.4584C5.76166 13.2142 5.59289 13.0169 5.25537 12.6222L4.94808 12.2629C3.76031 10.8739 3.16643 10.1795 3.37368 9.51298C3.58094 8.8465 4.45207 8.6494 6.19435 8.25519L6.64509 8.15321C7.14019 8.04119 7.38774 7.98517 7.58651 7.83428C7.78528 7.6834 7.91275 7.45471 8.16771 6.99734L8.39983 6.58094Z" stroke="#006FFF" stroke-width="1.2"/>
<path d="M4.15855 1.66667C4.15855 1.66667 4.39849 2.88143 4.92456 3.40396C5.45064 3.92649 6.66699 4.15823 6.66699 4.15823C6.66699 4.15823 5.45223 4.39817 4.9297 4.92424C4.40717 5.45032 4.17544 6.66667 4.17544 6.66667C4.17544 6.66667 3.93549 5.45191 3.40942 4.92938C2.88335 4.40685 1.66699 4.17512 1.66699 4.17512C1.66699 4.17512 2.88175 3.93517 3.40428 3.4091C3.92682 2.88303 4.15855 1.66667 4.15855 1.66667Z" stroke="#006FFF" stroke-width="1.2" stroke-linejoin="round"/>
<path d="M15 4.16666H16.6667M15.8333 4.99999L15.8333 3.33333" stroke="#006FFF" stroke-width="1.2" stroke-linecap="round"/>
</svg>
