<svg width="16" height="16" viewBox="0 0 16 16" fill="none" xmlns="http://www.w3.org/2000/svg">
<path d="M6.10178 3.60559C6.94622 2.09075 7.36843 1.33334 7.99967 1.33334C8.63092 1.33334 9.05313 2.09075 9.89757 3.60559L10.116 3.99749C10.356 4.42796 10.476 4.64319 10.663 4.78521C10.8501 4.92722 11.0831 4.97994 11.5491 5.08537L11.9733 5.18135C13.6131 5.55237 14.433 5.73788 14.6281 6.36516C14.8231 6.99243 14.2642 7.64605 13.1463 8.95329L12.8571 9.29148C12.5394 9.66296 12.3806 9.8487 12.3091 10.0785C12.2376 10.3083 12.2617 10.5561 12.3097 11.0517L12.3534 11.5029C12.5224 13.2471 12.6069 14.1191 12.0962 14.5068C11.5856 14.8945 10.8179 14.541 9.28256 13.8341L8.88535 13.6512C8.44906 13.4503 8.23091 13.3499 7.99967 13.3499C7.76844 13.3499 7.55029 13.4503 7.114 13.6512L6.71679 13.8341C5.18146 14.541 4.41379 14.8945 3.90311 14.5068C3.39242 14.1191 3.47693 13.2471 3.64594 11.5029L3.68966 11.0517C3.73769 10.5561 3.76171 10.3083 3.69025 10.0785C3.61879 9.8487 3.45996 9.66296 3.14229 9.29148L2.85307 8.95329C1.73517 7.64605 1.17622 6.99243 1.37129 6.36516C1.56635 5.73788 2.38625 5.55237 4.02603 5.18136L4.45027 5.08537C4.91624 4.97994 5.14923 4.92722 5.3363 4.78521C5.52338 4.64319 5.64336 4.42796 5.88332 3.99749L6.10178 3.60559Z" fill="#FFAB00"/>
</svg>
